<svg xmlns="http://www.w3.org/2000/svg" viewBox="0 0 66 82.5" x="0px" y="0px"><title>Artboard 28</title><g data-name="Layer 29"><path d="M51,1H15a1,1,0,0,0-1,1V25a1,1,0,0,0,2,0V3H50V9H25a1,1,0,0,0,0,2H50V53H47a1,1,0,0,0,0,2h3v8H16V55H41a1,1,0,0,0,0-2H16V41a1,1,0,0,0-2,0V64a1,1,0,0,0,1,1H51a1,1,0,0,0,1-1V2A1,1,0,0,0,51,1Z"/><path d="M31,58a1,1,0,0,0,0,2h3a1,1,0,0,0,0-2Z"/><path d="M30.22,27.3a2.18,2.18,0,0,0,.2-2.84l-3.78-5A2.16,2.16,0,0,0,24,18.76L19.41,20.9a2.13,2.13,0,0,0-1.23,2.27A31.11,31.11,0,0,0,26.51,40.1a31.07,31.07,0,0,0,17.17,8.57,1.73,1.73,0,0,0,.32,0,2.14,2.14,0,0,0,2-1.26l2.14-4.58a2.2,2.2,0,0,0-.66-2.66l-5-3.78a2.19,2.19,0,0,0-2.84.21L37.08,39.1a.18.18,0,0,1-.19,0A16.24,16.24,0,0,1,27.72,30a.17.17,0,0,1,0-.19Zm-4.36,3.4A18.33,18.33,0,0,0,36.15,41a2.18,2.18,0,0,0,2.34-.48L41,38a.17.17,0,0,1,.22,0l5,3.78a.19.19,0,0,1,.05.21L44.14,46.6a.14.14,0,0,1-.17.09,29.16,29.16,0,0,1-15.48-7.45l0,0-.5-.5-.29-.3,0,0a29.25,29.25,0,0,1-7.47-15.49.16.16,0,0,1,.1-.17l4.59-2.14a.17.17,0,0,1,.2.05l3.78,5a.17.17,0,0,1,0,.22l-2.47,2.47A2.18,2.18,0,0,0,25.86,30.7Z"/></g><text x="0" y="81" fill="#000000" font-size="5px" font-weight="bold" font-family="'Helvetica Neue', Helvetica, Arial-Unicode, Arial, Sans-serif">Created by Pedro</text><text x="0" y="86" fill="#000000" font-size="5px" font-weight="bold" font-family="'Helvetica Neue', Helvetica, Arial-Unicode, Arial, Sans-serif">from the Noun Project</text></svg>