<svg xmlns="http://www.w3.org/2000/svg" xmlns:xlink="http://www.w3.org/1999/xlink" xml:space="preserve" version="1.1" style="shape-rendering:geometricPrecision;text-rendering:geometricPrecision;image-rendering:optimizeQuality;" viewBox="0 0 847 1058.75" x="0px" y="0px" fill-rule="evenodd" clip-rule="evenodd"><defs><style type="text/css">
   
    .fil0 {fill:black;fill-rule:nonzero}
   
  </style></defs><g><path class="fil0" d="M495 665l0 -149 -144 0 0 149c0,10 -7,17 -17,17l-122 0c-10,0 -17,-7 -17,-17l0 -303c0,-5 2,-10 7,-13l210 -181c7,-5 16,-5 22,1l212 181c4,3 6,8 6,12l0 303c0,10 -8,17 -17,17l-123 0c-9,0 -17,-7 -17,-17zm34 -165l0 148 89 0 0 -278 -195 -166 -194 166 0 278 88 0 0 -148c0,-10 8,-17 17,-17l178 0c10,0 17,7 17,17z"/></g><text x="0" y="862" fill="#000000" font-size="5px" font-weight="bold" font-family="'Helvetica Neue', Helvetica, Arial-Unicode, Arial, Sans-serif">Created by Arif Arif</text><text x="0" y="867" fill="#000000" font-size="5px" font-weight="bold" font-family="'Helvetica Neue', Helvetica, Arial-Unicode, Arial, Sans-serif">from the Noun Project</text></svg>