<svg xmlns="http://www.w3.org/2000/svg" xmlns:xlink="http://www.w3.org/1999/xlink" version="1.1" x="0px" y="0px" viewBox="0 0 100 125" enable-background="new 0 0 100 100" xml:space="preserve"><path d="M49.437,48.649h1.126c7.044,0,12.775-5.731,12.775-12.776v-9.162c0-7.045-5.731-12.776-12.775-12.776h-1.126  c-7.046,0-12.777,5.731-12.777,12.776v9.162C36.66,42.918,42.391,48.649,49.437,48.649z M39.66,26.711  c0-5.391,4.386-9.776,9.777-9.776h1.126c5.391,0,9.775,4.386,9.775,9.776v9.162c0,5.391-4.385,9.776-9.775,9.776h-1.126  c-5.392,0-9.777-4.386-9.777-9.776V26.711z M75.887,56.506c-1.009-1.216-2.545-1.885-4.325-1.885H56.83c-0.828,0-1.5,0.672-1.5,1.5  s0.672,1.5,1.5,1.5h14.731c0.872,0,1.588,0.284,2.017,0.801c0.381,0.459,0.511,1.085,0.374,1.811  c-0.256,1.366-2.126,3.214-3.131,4.206L53.757,81.501c-0.96,0.96-2.247,1.511-3.624,1.554c-0.029,0.001-0.058,0.002-0.086,0.005  c-0.021-0.001-0.04-0.001-0.048-0.001l-0.042,0.001c-0.03-0.002-0.061-0.004-0.092-0.005c-1.376-0.043-2.662-0.594-3.622-1.553  L29.498,64.757l-0.321-0.318c-1.005-0.992-2.875-2.84-3.131-4.205c-0.136-0.727-0.006-1.354,0.375-1.813  c0.428-0.516,1.144-0.8,2.015-0.8h14.279c0.828,0,1.5-0.672,1.5-1.5s-0.672-1.5-1.5-1.5H28.437c-1.779,0-3.315,0.669-4.323,1.883  c-0.957,1.152-1.318,2.672-1.017,4.281c0.429,2.289,2.646,4.479,3.971,5.788l17.054,17.051c1.458,1.456,3.392,2.312,5.462,2.421  c0.072,0.011,0.12,0.017,0.221,0.019c0.046,0,0.183-0.003,0.211-0.004c0.028,0.001,0.137,0.004,0.179,0.004  c0.099,0.007,0.146-0.008,0.218-0.019c2.072-0.108,4.007-0.965,5.465-2.422l16.745-16.745l0.307-0.305  c1.325-1.309,3.542-3.499,3.972-5.788C77.203,59.178,76.843,57.658,75.887,56.506z"/><text x="0" y="115" fill="#000000" font-size="5px" font-weight="bold" font-family="'Helvetica Neue', Helvetica, Arial-Unicode, Arial, Sans-serif">Created by Chunk Icons</text><text x="0" y="120" fill="#000000" font-size="5px" font-weight="bold" font-family="'Helvetica Neue', Helvetica, Arial-Unicode, Arial, Sans-serif">from the Noun Project</text></svg>