<svg xmlns="http://www.w3.org/2000/svg" xmlns:xlink="http://www.w3.org/1999/xlink" version="1.1" x="0px" y="0px" viewBox="0 0 300 375" style="enable-background:new 0 0 300 300;" xml:space="preserve"><path d="M281.8,134.4c-2.1,0-4.1,0.4-6,1.2l-45.1-78.1c5.8-4.1,9.7-10.9,9.7-18.6c0-12.5-10.2-22.7-22.7-22.7  c-11.8,0-21.6,9.1-22.6,20.7h-90.2c-1-7.6-7.5-13.6-15.4-13.6c-8.6,0-15.6,7-15.6,15.6c0,8.6,7,15.6,15.6,15.6  c7.9,0,14.4-5.9,15.4-13.6h90.2c0.6,7,4.5,13.2,10,16.9l-34.5,63.3c-4.1-1.9-8.6-3-13.4-3c-16.9,0-30.7,13.2-31.8,29.8H47.9  c-0.6-6.8-4.3-12.8-9.6-16.6l45-77.9l-3.5-2l-45,77.9c-2.9-1.4-6.2-2.1-9.6-2.1c-12.5,0-22.7,10.2-22.7,22.7  c0,12.5,10.2,22.7,22.7,22.7c3.4,0,6.7-0.8,9.6-2.1L80,248.7c-3.7,2.8-6.1,7.3-6.1,12.3c0,8.6,7,15.6,15.6,15.6  c7.9,0,14.4-5.9,15.4-13.6h90.2c1,11.6,10.8,20.7,22.6,20.7c12.5,0,22.7-10.2,22.7-22.7c0-7.7-3.8-14.5-9.7-18.6l45.1-78.1  c1.8,0.8,3.9,1.2,6,1.2c8.6,0,15.6-7,15.6-15.6S290.4,134.4,281.8,134.4z M89.4,50.5c-6.4,0-11.6-5.2-11.6-11.6  c0-6.4,5.2-11.6,11.6-11.6c6.4,0,11.6,5.2,11.6,11.6C101,45.3,95.8,50.5,89.4,50.5z M199,38.9c0-10.3,8.4-18.7,18.7-18.7  c10.3,0,18.7,8.4,18.7,18.7c0,10.3-8.4,18.7-18.7,18.7C207.4,57.6,199,49.2,199,38.9z M157.2,122.2c15.3,0,27.8,12.5,27.8,27.8  c0,15.3-12.5,27.8-27.8,27.8c-15.3,0-27.8-12.5-27.8-27.8C129.3,134.7,141.8,122.2,157.2,122.2z M6.6,150c0-10.3,8.4-18.7,18.7-18.7  S44,139.7,44,150c0,10.3-8.4,18.7-18.7,18.7S6.6,160.3,6.6,150z M38.4,168.6c5.3-3.8,9-9.7,9.6-16.6h77.5  c1,16.6,14.9,29.8,31.8,29.8c4.7,0,9.2-1,13.2-2.9l34,63.8c-5.2,3.8-8.7,9.6-9.3,16.4h-90.2c-1-7.6-7.5-13.6-15.4-13.6  c-2.1,0-4.1,0.4-6,1.2L38.4,168.6z M89.4,272.6c-6.4,0-11.6-5.2-11.6-11.6s5.2-11.6,11.6-11.6c6.4,0,11.6,5.2,11.6,11.6  S95.8,272.6,89.4,272.6z M236.4,261.1c0,10.3-8.4,18.7-18.7,18.7c-10.3,0-18.7-8.4-18.7-18.7s8.4-18.7,18.7-18.7  C228,242.4,236.4,250.8,236.4,261.1z M227.3,240.5c-2.9-1.4-6.2-2.1-9.6-2.1c-3.6,0-6.9,0.8-9.9,2.3l-33.9-63.6  c9.1-5.6,15.1-15.6,15.1-27.1c0-11.3-5.9-21.3-14.9-26.9l34.5-63.3c2.8,1.2,5.8,1.9,9.1,1.9c3.4,0,6.7-0.8,9.6-2.1l45.1,78.2  c-3.7,2.8-6.1,7.3-6.1,12.3c0,5,2.4,9.5,6.1,12.3L227.3,240.5z M281.8,161.6c-6.4,0-11.6-5.2-11.6-11.6c0-6.4,5.2-11.6,11.6-11.6  s11.6,5.2,11.6,11.6C293.4,156.4,288.2,161.6,281.8,161.6z"/><text x="0" y="315" fill="#000000" font-size="5px" font-weight="bold" font-family="'Helvetica Neue', Helvetica, Arial-Unicode, Arial, Sans-serif">Created by Wenjie</text><text x="0" y="320" fill="#000000" font-size="5px" font-weight="bold" font-family="'Helvetica Neue', Helvetica, Arial-Unicode, Arial, Sans-serif">from the Noun Project</text></svg>